<svg width="100" height="100" viewBox="0 0 100 100" xmlns="http://www.w3.org/2000/svg">
  <title>LIME GRID</title>
  <defs>
    <linearGradient x1="98.431%" y1="3.145%" x2="12.9%" y2="90.875%" id="a">
      <stop stop-color="#FDDB92" offset="0%"/>
      <stop stop-color="#D1FDFF" offset="100%"/>
    </linearGradient>
  </defs>
  <g fill="none" fill-rule="evenodd">
    <path d="M0 76.86h3.266v19.593h6.47v3.277H0V76.86zm12.127 0h3.266v22.87h-3.266V76.86zm6.62 0h3.137l4.195 12.11h.063l4.163-12.11h3.17v22.87H30.21V85.82h-.064l-3.234 9.83h-1.634l-3.202-9.83h-.064v13.91h-3.266V76.86zm17.986 0h9.735v3.083h-6.47v6.713h5.637v3.084H40v6.713h6.468v3.277h-9.735V76.86zm17.977 5.396c0-.92.16-1.735.48-2.44.32-.708.742-1.292 1.265-1.752.523-.46 1.11-.808 1.76-1.044.652-.236 1.31-.353 1.97-.353.663 0 1.32.117 1.97.353.65.236 1.24.584 1.762 1.044.523.46.944 1.044 1.265 1.75.32.707.48 1.52.48 2.442v1.156h-3.267v-1.156c0-.793-.218-1.376-.656-1.75-.44-.376-.956-.563-1.554-.563-.598 0-1.116.187-1.553.562-.438.375-.657.958-.657 1.75v12.078c0 .793.22 1.376.657 1.75.437.376.955.563 1.553.563s1.115-.187 1.553-.562c.437-.375.655-.958.655-1.75v-4.305h-2.593v-2.892h5.86v7.195c0 .943-.16 1.762-.48 2.458-.32.697-.742 1.275-1.265 1.735-.523.46-1.11.81-1.762 1.044-.65.235-1.307.352-1.97.352-.66 0-1.318-.117-1.97-.353-.65-.236-1.237-.584-1.76-1.045-.523-.46-.945-1.038-1.265-1.734-.32-.695-.48-1.514-.48-2.457V82.256zm17.282 4.818h1.858c.576 0 1.035-.08 1.377-.24.34-.162.603-.392.784-.692.183-.3.306-.67.37-1.108.064-.44.096-.947.096-1.526 0-.578-.032-1.086-.096-1.525-.064-.44-.198-.814-.4-1.125-.203-.31-.486-.54-.85-.69-.362-.15-.843-.225-1.44-.225h-1.698v7.13zM68.726 76.86h5.252c3.843 0 5.764 2.237 5.764 6.713 0 1.327-.208 2.468-.624 3.42-.417.954-1.148 1.72-2.194 2.297l3.523 10.44h-3.46l-3.04-9.765H71.99v9.765h-3.266V76.86zm13.92 0h3.267v22.87h-3.267V76.86zm6.62 0H94.1c1.858 0 3.278.52 4.26 1.557.982 1.04 1.473 2.49 1.473 4.353v10.696c0 2.14-.518 3.72-1.553 4.738-1.036 1.017-2.525 1.526-4.468 1.526h-4.547V76.86zm3.265 19.786h1.506c.918 0 1.57-.23 1.954-.69.384-.46.576-1.184.576-2.17V82.77c0-.9-.18-1.596-.544-2.088-.363-.493-1.025-.74-1.986-.74H92.53v16.704z" fill="#A9E4DA"/>
    <path d="M0 0h99.698v16.364H0V0zm0 25.545h27.19v16.363H0V25.545zm36.254 0h27.19v16.363h-27.19V25.545zm36.254 0h27.19v16.363h-27.19V25.545zM0 51.09h18.127v16.363H0V51.09zm27.19 0h18.127v16.363H27.19V51.09zm27.19 0H72.51v16.363H54.38V51.09zm27.19 0H99.7v16.363H81.57V51.09z" fill="url(#a)"/>
  </g>
</svg>
